<?xml version="1.0" encoding="utf-8"?>
<!-- Generator: Adobe Illustrator 25.2.1, SVG Export Plug-In . SVG Version: 6.00 Build 0)  -->
<svg version="1.1" id="Livello_1" xmlns="http://www.w3.org/2000/svg" xmlns:xlink="http://www.w3.org/1999/xlink" x="0px" y="0px"
	 width="295.6px" height="52.1px" viewBox="0 0 295.6 52.1" style="enable-background:new 0 0 295.6 52.1;" xml:space="preserve">
<style type="text/css">
	.Ombra_x0020_esterna{fill:none;}
	.Angoli_x0020_arrotondati_x0020_2_x0020_pt{fill:#FFFFFF;stroke:#000000;stroke-miterlimit:10;}
	.Riflessione_x0020_X_x0020_dinamica{fill:none;}
	.Smusso_x0020_morbido{fill:url(#SVGID_1_);}
	.Crepuscolo{fill:#FFFFFF;}
	.Fogliame_GS{fill:#FFDD00;}
	.Pompadour_GS{fill-rule:evenodd;clip-rule:evenodd;fill:#51AEE2;}
	.st0{opacity:0.506;fill:url(#Tracciato_4990_1_);enable-background:new    ;}
	.st1{fill:none;stroke:#63B772;}
</style>
<linearGradient id="SVGID_1_" gradientUnits="userSpaceOnUse" x1="-136.5896" y1="-381.815" x2="-135.8825" y2="-381.1079">
	<stop  offset="0" style="stop-color:#E6E6EB"/>
	<stop  offset="0.1738" style="stop-color:#E2E2E6"/>
	<stop  offset="0.352" style="stop-color:#D5D4D8"/>
	<stop  offset="0.5323" style="stop-color:#C0BFC2"/>
	<stop  offset="0.7139" style="stop-color:#A4A2A4"/>
	<stop  offset="0.8949" style="stop-color:#828282"/>
	<stop  offset="1" style="stop-color:#6B6E6E"/>
</linearGradient>
<g id="Raggruppa_3836" transform="translate(0.433 1)">
	<g id="Raggruppa_3169" transform="translate(-0.164 -0.657)">
		
			<linearGradient id="Tracciato_4990_1_" gradientUnits="userSpaceOnUse" x1="-134.8961" y1="453.2279" x2="-134.8991" y2="451.4139" gradientTransform="matrix(294.8931 0 0 -50.638 39928.5625 22903.7168)">
			<stop  offset="0" style="stop-color:#63B772"/>
			<stop  offset="1" style="stop-color:#EDF6F0"/>
		</linearGradient>
		<path id="Tracciato_4990" class="st0" d="M295.1,5.8l-5.7,1.3l-9.7-1.3h-24.4L240.4,0h-8.9l-13.4,10L207,21.3l-5,4.5l-10.6,4.1
			l-11.7-14.1l-6.1-1.5h-8.9l-11.7,10l-12.8-2.9l-13.7,2.9h-15.3l-8.9-2.9L89,21.7l-11.2,2.6l-13.3-2.9l-11.3,5.6H37.8l-11.3-5.3
			L11,44L0.3,50.6l294.9-0.8L295.1,5.8z"/>
		<path id="Tracciato_5228" class="st1" d="M0,51.3l11.1-7.1l15.5-22.7l11.1,5.7h15.5l11.1-5.7l13.3,2.8l11.1-2.8h15.5l6.7,2.8h15.5
			l13.3-2.8l13.3,2.8l11.1-9.9h8.9l6.7,1.4L190.9,30l11.1-4.3l4.4-4.3l11.1-11.4l13.3-9.9h8.9l15.5,5.7h24.4l8.9,1.4l6.7-1.4"/>
	</g>
</g>
</svg>
