<?xml version="1.0" encoding="utf-8"?>
<!-- Generator: Adobe Illustrator 25.2.1, SVG Export Plug-In . SVG Version: 6.00 Build 0)  -->
<svg version="1.1" id="Livello_1" xmlns="http://www.w3.org/2000/svg" xmlns:xlink="http://www.w3.org/1999/xlink" x="0px" y="0px"
	 width="158.2px" height="158.2px" viewBox="0 0 158.2 158.2" style="enable-background:new 0 0 158.2 158.2;" xml:space="preserve"
	>
<style type="text/css">
	.Ombra_x0020_esterna{fill:none;}
	.Angoli_x0020_arrotondati_x0020_2_x0020_pt{fill:#FFFFFF;stroke:#1D1D1B;stroke-miterlimit:10;}
	.Riflessione_x0020_X_x0020_dinamica{fill:none;}
	.Smusso_x0020_morbido{fill:url(#SVGID_1_);}
	.Crepuscolo{fill:#FFFFFF;}
	.Fogliame_GS{fill:#FFDD00;}
	.Pompadour_GS{fill-rule:evenodd;clip-rule:evenodd;fill:#51AEE2;}
	.st0{fill:#6C93FF;}
	.st1{opacity:0.95;fill:#FFFFFF;}
	.st2{fill:url(#SVGID_2_);}
	.st3{fill:url(#SVGID_3_);}
</style>
<linearGradient id="SVGID_1_" gradientUnits="userSpaceOnUse" x1="-218.2602" y1="-341.7602" x2="-217.5531" y2="-341.0531">
	<stop  offset="0" style="stop-color:#E6E6EB"/>
	<stop  offset="0.1754" style="stop-color:#E2E2E7"/>
	<stop  offset="0.3552" style="stop-color:#D6D6DB"/>
	<stop  offset="0.5371" style="stop-color:#C2C3C6"/>
	<stop  offset="0.7204" style="stop-color:#A5A7A9"/>
	<stop  offset="0.9031" style="stop-color:#818485"/>
	<stop  offset="1" style="stop-color:#6B6E6E"/>
</linearGradient>
<circle class="st0" cx="79.1" cy="79.1" r="79.1"/>
<g>
	<path class="st1" d="M125.2,99c-2,4.4-4.5,8.4-7.6,12c2.4-3.1,4.4-6.6,6-10.2c-0.2-1-0.5-2-0.8-3c0-0.1-0.1-0.3-0.1-0.4
		c0,0,0,0,0,0c0-0.1,0-0.2-0.1-0.2c0-0.1-0.1-0.2-0.1-0.3c-1-2.9-2.4-5.7-4.3-8.3c-0.8-1.2-1.8-2.3-2.8-3.4
		c-1.6-1.6-3.6-3.1-5.8-4.5c-3.6-2.3-8-4.1-13.4-5.5c-8.6-2.3-15.9-4.2-21.8-5.7c-5.9-1.5-11-3-15.5-4.6c-2.6-0.9-4.9-2.5-7.1-4.8
		c-2.2-2.3-3.2-5.8-3.2-10.6c0-2.3,0.5-4.6,1.4-6.9c1.7-4.8,5.9-9.8,9.4-12c-4.5,1.7-10,5.7-13.8,8.5c4.1-3.4,8.8-6.5,13.8-8.5
		c0.1,0-0.1,0,0,0c8.8-3.5,18.8-4.5,28.8-2.5c10.6,2,19.8,7.2,26.8,14.4c0.4,0.4,1,0.6,1.7,0.6c0.9,0,1.7-0.3,2.4-0.9l1.2-1l0.9-0.8
		l7.2-7.4c-10-11.1-23.9-19-40-21.4c-35.1-5.3-68.7,18.1-76,52.8c-7.8,37,16.3,73,53.2,80.1c32.4,6.3,63.2-10.3,74.9-39.9
		c0.1-0.1,1.4,0.6,1.4,0.4c0,0,0-0.3-0.1-0.6c-0.3-1.3-1.3-2.3-2.5-2.5L125.2,99z M101.1,117.1c-2.3,5.9-7.4,10.3-13.7,11.4
		c-5.9,1-12.2,1-18.4-0.2c-27.7-5.3-45.8-32.1-40.5-59.9c0.3-1.3,0.6-2.6,0.9-3.8c0.9,2.3,2.1,4.5,3.7,6.6c2.1,2.8,4.9,5.3,8.5,7.6
		c3.6,2.3,8,4.1,13.4,5.5c8.6,2.3,15.9,4.2,21.8,5.7c5.9,1.5,11,3,15.5,4.6C92.2,94.6,107.7,99.7,101.1,117.1z"/>
	<g>
		<radialGradient id="SVGID_2_" cx="60.121" cy="102.6682" r="69.2863" gradientUnits="userSpaceOnUse">
			<stop  offset="0" style="stop-color:#FFFFFF"/>
			<stop  offset="1" style="stop-color:#6993FF"/>
		</radialGradient>
		<path class="st2" d="M103.7,116.4c-3.4,9.7-11.7,13.5-20.2,14.6c-0.9,0.1-1.8,0.2-2.7,0.3c20.5-0.8,38-13.5,45.8-31.3
			c-0.2-1-0.5-2.1-0.8-3.1c0-0.1-0.1-0.3-0.1-0.4c0,0,0,0,0,0.1c0-0.1,0-0.2-0.1-0.2c0-0.1-0.1-0.2-0.1-0.3c-1-3-2.4-5.8-4.3-8.5
			c-0.9-1.2-1.8-2.3-2.9-3.4c-1.7-1.6-3.6-3.2-5.9-4.6c-3.6-2.3-8.2-4.2-13.6-5.6c-8.8-2.4-16.2-4.3-22.2-5.8
			c-6-1.5-11.2-3.1-15.8-4.7c-2.6-1-5-2.6-7.2-4.9c-2.2-2.3-3.3-5.9-3.3-10.8c0-2.4,0.5-4.7,1.4-7c1.7-4.8,4.6-8.2,8.1-10.5
			c-14.7,5.6-26.2,17.7-31,32.7c0.3-0.8,0.6-1.6,0.9-2.4c0,0.1,0,0.2,0.1,0.2c0.9,3.2,2.4,6.2,4.5,9.1c2.1,2.8,5,5.4,8.6,7.7
			c3.6,2.3,8.2,4.2,13.6,5.6c8.8,2.4,16.2,4.3,22.2,5.8c6,1.5,11.2,3.1,15.8,4.7C94.6,93.7,109.7,98.1,103.7,116.4z"/>
		<linearGradient id="SVGID_3_" gradientUnits="userSpaceOnUse" x1="18.3823" y1="117.1835" x2="164.6994" y2="24.3705">
			<stop  offset="0" style="stop-color:#FFFFFF"/>
			<stop  offset="1" style="stop-color:#6993FF"/>
		</linearGradient>
		<path class="st3" d="M69.3,129.6c-28.9-5.6-47.5-34-40.7-62.9c6.1-26,31.4-43.3,57.9-39.5c11.5,1.6,21.4,6.9,29,14.3
			c1.2,1.2,3,1.2,4.3,0.1l7.9-7.1c1.3-1.1,1.3-3.1,0.1-4.3c-10-10.1-23.2-17.2-38.5-19.5C53.5,5.4,19.4,29.1,12,64.5
			c-7.9,37.6,16.6,74.2,54.1,81.5c32.1,6.2,63.2-11,75.8-39.7c0.7-1.6-0.3-3.5-2-3.8l-13.3-2.6C116.9,121.4,93.4,134.3,69.3,129.6z"
			/>
	</g>
</g>
</svg>
