<?xml version="1.0" encoding="utf-8"?>
<!-- Generator: Adobe Illustrator 25.2.1, SVG Export Plug-In . SVG Version: 6.00 Build 0)  -->
<svg version="1.1" id="Livello_1" xmlns="http://www.w3.org/2000/svg" xmlns:xlink="http://www.w3.org/1999/xlink" x="0px" y="0px"
	 width="67.4px" height="67.4px" viewBox="0 0 67.4 67.4" style="enable-background:new 0 0 67.4 67.4;" xml:space="preserve">
<style type="text/css">
	.st0{fill:#FEFEFE;}
	.st1{fill:#333EA3;}
	.st2{fill:#E30713;}
</style>
<g>
	<circle class="st0" cx="33.7" cy="33.7" r="33.7"/>
	<g>
		<path class="st0" d="M35.7,31.5c-0.1-1.6-0.1-3.2,0-4.8c0,0,0.1,0,0.1,0c10.1,0,20.2,0,30.3,0c0.5,0,0.5-0.2,0.4-0.6
			c-0.4-1.5-0.8-3-1.4-4.5c-0.2-0.5-0.4-0.6-0.9-0.6c-9.1,0-18.3,0-27.4,0c-0.4,0-0.7,0-1.1,0c0-1.6-0.1-3.2,0-4.8
			c0.2,0,0.3,0,0.5,0c8.6,0,17.2,0,25.9,0c0.1,0,0.3,0.1,0.4-0.1c-1.1-1.8-2.4-3.5-3.8-5.1c-0.3-0.3-0.6-0.5-1-0.5
			c-7.1,0-14.2,0-21.3,0c-0.2,0-0.4,0-0.6,0c-0.1-1.6-0.1-3.2,0-4.8c0.1,0,0.3,0,0.4,0c4.9,0,9.8,0,14.7,0c0.6,0,1.1,0,1.8,0
			c-0.2-0.1-0.3-0.2-0.3-0.2c-3.8-2.6-8-4.2-12.5-5.1c-1.3-0.2-2.7-0.5-4.1-0.3c-1.9-0.1-3.9-0.2-5.8,0c-3.5,0.3-6.8,1.3-10,2.7
			c-0.7,0.3-1.2,0.9-1.7,1.5c-0.3,0.3,0.1,0.9,0.1,1.3c0,0.1,0,0.1,0,0.3c-0.8-0.7-1.7-0.8-2.6,0.1c0-0.4,0-0.6,0-0.9
			c-0.7,0.5-1.3,0.9-1.9,1.3c-0.1,0.1-0.3,0.1-0.2,0.3c0,0.2,0.2,0.2,0.3,0.3c0.4,0.1,0.8,0,1.3,0.3C14.1,8,14,8.8,14.3,9.9
			c-0.9-0.7-1.7-0.7-2.7,0.1c0.1-0.6,0.2-1,0.2-1.4c0-0.1,0-0.3-0.1-0.3c-0.1-0.1-0.2,0.1-0.3,0.1c-0.4,0.4-0.8,0.7-1.2,1.1
			c-0.2,0.2-0.5,0.3-0.3,0.6c0.2,0.3,0.3,0.6,0.8,0.6c0.3,0,0.6,0,1,0.3c-1,0.6-1.2,1.4-0.9,2.5c-0.9-0.8-1.7-0.6-2.6,0
			c0.1-0.6,0.1-1,0.2-1.4c0-0.2,0-0.3-0.2-0.4C8.1,11.7,8,11.9,7.9,12c-0.5,0.6-1,1.3-1.5,1.9c-0.3,0.3-0.2,0.5,0.2,0.6
			c0.4,0.1,0.8,0,1.2,0.3c-1.2,0.5-1.2,1.4-0.8,2.5c-0.4-0.2-0.6-0.3-0.9-0.4c-0.2-0.1-0.4-0.3-0.6-0.2c-0.7,0.3-1.5,0.5-1.8,1.4
			c0,0.1-0.2,0.3,0.1,0.3c0.5,0.1,0.3,0.3,0.1,0.4c-0.6,0.4-0.8,1-0.6,1.7c0,0.1,0,0.3,0,0.4c-0.8-0.2-0.8-0.2-1.2,0.6
			c-0.5,1.2-0.9,2.5-1.2,3.8c0,0.1-0.2,0.4,0,0.4c0.2,0.1,0.4,0,0.5-0.3c0.2-0.4,0.3-0.7,0.5-1.1c0.4,1.1,1.1,1.5,2.2,1.5
			c-1,0.6-1.2,1.5-0.8,2.5C2.1,28,2.1,28,1,28.5c-0.1,0-0.1-0.1-0.2-0.1c-0.1-0.5,0.4-1-0.1-1.5c-0.4,1.4-0.4,2.7-0.6,4.1
			C0.1,31.6,0.1,32.3,0,33c0,0.4,0.1,0.4,0.5,0.4c0.7,0,1.2-0.3,1.4-1c0-0.1,0.1-0.4,0.4-0.4c0.2,1.1,0.9,1.5,2,1.5
			c-1.1,0.6-1.2,1.5-0.9,2.6c-0.9-0.8-1.8-0.7-2.7,0c0.3-1,0.4-1.9-0.8-2.4c0,0.9,0.1,1.8,0.1,2.6c0,0.6,0.2,0.8,0.8,0.8
			c11.3,0,22.7,0,34,0c0.2,0,0.4,0,0.7,0c0.2,0,0.5,0,0.7,0c4.1,0,8.2,0,12.3,0c5.9,0,11.9,0,17.8,0c0.5,0,0.6-0.1,0.7-0.6
			c0.1-1.4,0.1-2.9,0.1-4.3c0-0.6-0.2-0.8-0.8-0.8c-10,0-20.1,0-30.1,0C36.2,31.5,35.9,31.5,35.7,31.5z M33.7,41.9
			c-10.7,0-21.3,0-32,0c-0.6,0-0.7,0.1-0.5,0.7c0.5,1.5,1,3,1.6,4.5c0.2,0.4,0.4,0.6,0.8,0.6c3.5,0,7,0,10.5,0c16.5,0,33,0,49.6,0
			c0.5,0,0.7-0.1,0.9-0.6c0.6-1.4,1.1-2.9,1.5-4.4c0.2-0.7,0.2-0.7-0.6-0.7C54.9,41.9,44.3,41.9,33.7,41.9z M5.7,52.4
			c0,0.1,0.1,0.2,0.1,0.2c1.3,1.9,2.7,3.6,4.3,5.2C10.4,58,10.7,58,11,58c15.1,0,30.3,0,45.4,0c0.4,0,0.6-0.1,0.9-0.4
			c1.5-1.5,2.9-3.1,4.1-4.9c0.1-0.1,0.3-0.2,0.2-0.5C43,52.4,24.4,52.4,5.7,52.4z M16.9,62.8c1.7,1.4,7.1,3.4,11,4
			c3.9,0.7,7.7,0.7,11.6,0c3.7-0.6,9.8-2.9,10.9-4C39.2,62.8,28.1,62.8,16.9,62.8z"/>
		<path class="st1" d="M35.7,37.1c-0.2,0-0.4,0-0.7,0c-11.3,0-22.7,0-34,0c-0.6,0-0.8-0.1-0.8-0.8c0-0.9-0.1-1.8-0.1-2.6
			c1.2,0.5,1.1,1.4,0.8,2.4c0.9-0.7,1.7-0.8,2.7,0c-0.3-1.1-0.2-1.9,0.9-2.6c-1.1,0-1.9-0.5-2-1.5c-0.3,0-0.3,0.3-0.4,0.4
			c-0.2,0.7-0.7,1-1.4,1c-0.4,0-0.5,0-0.5-0.4c0.1-0.7,0-1.4,0.1-2.2c0.2-1.3,0.2-2.7,0.6-4.1c0.5,0.5,0,1.1,0.1,1.5
			c0,0.1,0,0.1,0,0.2c0.1,0,0.1,0,0.2,0C2.1,28,2.1,28,3.5,28.6c-0.4-1.1-0.2-1.9,0.8-2.5c-1.1,0-1.8-0.5-2.2-1.5
			c-0.2,0.4-0.3,0.7-0.5,1.1c-0.1,0.2-0.3,0.3-0.5,0.3c-0.3-0.1-0.1-0.3,0-0.4c0.3-1.3,0.7-2.6,1.2-3.8c0.3-0.8,0.3-0.8,1.2-0.6
			c0-0.1,0-0.3,0-0.4c-0.2-0.7,0-1.3,0.6-1.7c0.2-0.1,0.4-0.4-0.1-0.4c-0.2,0-0.1-0.2-0.1-0.3c0.3-0.9,1.1-1.1,1.8-1.4
			c0.2-0.1,0.4,0.2,0.6,0.2c0.2,0.1,0.5,0.2,0.9,0.4c-0.4-1.1-0.4-2,0.8-2.5c-0.5-0.3-0.9-0.2-1.2-0.3c-0.4-0.1-0.5-0.3-0.2-0.6
			c0.5-0.6,1-1.3,1.5-1.9c0.1-0.1,0.1-0.3,0.3-0.2c0.1,0.1,0.2,0.2,0.2,0.4c-0.1,0.4-0.1,0.8-0.2,1.4c0.9-0.7,1.8-0.9,2.6,0
			c-0.3-1.1-0.1-1.9,0.9-2.5c-0.4-0.2-0.7-0.2-1-0.3c-0.5,0-0.6-0.3-0.8-0.6c-0.2-0.4,0.1-0.5,0.3-0.6c0.4-0.4,0.8-0.7,1.2-1.1
			c0.1-0.1,0.2-0.2,0.3-0.1c0.1,0.1,0.1,0.2,0.1,0.3C11.8,9,11.7,9.4,11.6,10c0.9-0.8,1.8-0.9,2.7-0.1c-0.3-1-0.2-1.9,0.9-2.4
			c-0.5-0.3-0.9-0.2-1.3-0.3c-0.2,0-0.3-0.1-0.3-0.3c0-0.2,0.1-0.2,0.2-0.3c0.6-0.4,1.2-0.8,1.9-1.3c0,0.3,0,0.5,0,0.9
			c0.9-0.9,1.8-0.8,2.6-0.1c0-0.2,0-0.2,0-0.3c0-0.4-0.4-1-0.1-1.3c0.5-0.6,0.9-1.1,1.7-1.5c3.2-1.4,6.5-2.4,10-2.8
			C31.8,0,33.8,0,35.7,0c0,1.9,0,4,0,5.8c-0.1,1.6-0.1,3.2,0,4.8c0,1.9,0,3.8,0,5.6c-0.1,1.6-0.1,3.2,0,4.8c0,1.9,0,3.8,0,5.6
			c-0.1,1.6-0.1,3.2,0,4.8C35.7,33.4,35.7,35.3,35.7,37.1z M33.9,33.5c-1.2,0.1-1.8-0.5-2.2-1.6c-0.3,1.1-1,1.7-2.2,1.6
			c1,0.7,1.2,1.5,0.8,2.6c0.9-0.8,1.8-0.7,2.7,0C32.7,35,32.9,34.2,33.9,33.5z M27.5,13.1c-0.2,1.3-1,1.6-2.2,1.6
			c1.1,0.6,1.2,1.5,0.9,2.5c0.9-0.7,1.7-0.7,2.7,0c-0.4-1.1-0.1-1.9,0.8-2.6C28.5,14.8,27.9,14.2,27.5,13.1z M14.3,32.1
			c-0.5-1.1-0.1-1.9,0.8-2.6C14,29.6,13.3,29,13,27.8c-0.3,0.6-0.4,1.1-0.8,1.3c-0.3,0.2-0.9,0.2-1.5,0.3c1.1,0.6,1.3,1.5,0.9,2.6
			C12.5,31.4,13.4,31.3,14.3,32.1z M14.8,18.5c1.1,0.6,1.1,1.5,0.9,2.6c0.9-0.8,1.7-0.6,2.6,0.1c-0.1-0.6-0.3-1.1-0.1-1.5
			c0.1-0.4,0.6-0.7,1.1-1.2c-1.3,0.2-1.9-0.4-2.3-1.5C16.6,18,16,18.6,14.8,18.5z M22.2,26c1,0.7,1.2,1.5,0.8,2.6
			c0.9-0.8,1.8-0.7,2.7,0c-0.5-1.1-0.1-1.9,0.8-2.6c-1.3,0.2-1.8-0.5-2.2-1.6C24.1,25.7,23.3,26,22.2,26z M20.2,5.7
			c-0.3,1.1-1,1.6-2.2,1.6c1.1,0.6,1.2,1.5,0.8,2.6c1.4-0.6,1.4-0.6,2.8,0c-0.5-1.1-0.2-1.9,0.8-2.6C21.2,7.5,20.6,6.8,20.2,5.7z
			 M34,10.9c-1.3,0.2-1.8-0.4-2.2-1.5c-0.3,1.1-1,1.6-2.2,1.5c0.4,0.5,0.9,0.8,1,1.2c0.1,0.4-0.1,0.9-0.2,1.6c0.9-0.9,1.8-0.9,2.7,0
			C33,12.1,33,12.1,34,10.9z M18.1,29.5c1,0.7,1.2,1.5,0.8,2.6c0.9-0.8,1.8-0.7,2.7,0c-0.5-1.1-0.1-1.9,0.8-2.6
			c-1.2,0.1-1.8-0.5-2.1-1.6C19.9,29,19.3,29.6,18.1,29.5z M25.8,6.1c-0.6-1.2-0.2-2,0.7-2.6c-1.2,0.1-1.8-0.5-2.1-1.7
			c-0.3,0.6-0.4,1.1-0.8,1.3c-0.3,0.3-0.9,0.2-1.4,0.3c0.4,0.4,0.8,0.7,1,1.1C23.4,5,23,5.5,23.1,6C24.3,5.4,24.3,5.4,25.8,6.1z
			 M22.1,18.5c1.1,0.6,1.3,1.5,0.9,2.6c0.9-0.8,1.8-0.7,2.7,0c-0.4-1.1-0.1-1.9,0.8-2.6c-1.2,0.2-1.8-0.5-2.1-1.6
			C23.6,18.2,23.6,18.2,22.1,18.5z M27.4,20.5c-0.1,1.3-0.9,1.6-2.1,1.7c1,0.6,1.2,1.5,0.9,2.6c0.9-0.8,1.7-0.7,2.6,0.1
			c-0.1-0.6-0.3-1.1-0.1-1.6c0.1-0.4,0.7-0.6,0.9-1.1c-0.5-0.1-1,0-1.4-0.3C27.9,21.5,27.9,20.9,27.4,20.5z M10.9,28.6
			c-0.6-1.1,0-1.8,0.7-2.6c-1.2,0.1-1.8-0.5-2.1-1.6c-0.7,1.3-0.7,1.3-2.2,1.7c1,0.6,1.3,1.4,0.8,2.5C9.6,28,9.6,28,10.9,28.6z
			 M33.9,26c-1.2,0-1.8-0.5-2.1-1.6c-0.3,1.1-1,1.6-2.2,1.6c1.2,0.6,1.1,1.5,0.9,2.6c0.9-0.9,1.7-0.7,2.7,0
			C32.7,27.5,32.9,26.7,33.9,26z M5.7,20.5c-0.3,1.1-1,1.6-2.2,1.6c1,0.6,1.2,1.5,0.8,2.6c0.9-0.8,1.8-0.7,2.7,0
			c-0.6-1.1-0.1-1.9,0.8-2.6C6.6,22.2,6,21.6,5.7,20.5z M11.7,18.5c-1.2,0.2-1.8-0.5-2.2-1.6c-0.3,1.1-1,1.6-2.1,1.6
			c1,0.6,1.2,1.5,0.8,2.6c0.9-0.9,1.7-0.7,2.7-0.1C10.4,19.9,10.9,19.2,11.7,18.5z M31.8,1.9c-0.3,1.1-1,1.6-2.2,1.6
			C30.8,4.1,30.7,5,30.5,6c0.9-0.8,1.8-0.7,2.7,0c-0.4-1.1-0.1-1.9,0.8-2.6C32.8,3.5,32.1,3,31.8,1.9z M14.8,33.6
			c1.1,0.6,1.1,1.5,0.9,2.6c0.9-0.9,1.7-0.6,2.6-0.1c-0.5-1.1-0.1-1.9,0.8-2.6C17.9,33.7,17.3,33,17,32C16.6,33,16,33.6,14.8,33.6z
			 M20.3,20.6c-0.3,1.1-1,1.6-2.2,1.6c1.1,0.6,1.2,1.5,0.9,2.6c0.9-0.7,1.7-0.7,2.7,0.1c-0.1-0.6-0.3-1.1-0.2-1.6
			c0.1-0.4,0.7-0.6,0.9-1.2C21.2,22.2,20.6,21.6,20.3,20.6z M19.1,10.9c-1.3,0.2-1.8-0.5-2.2-1.6c-0.3,1.2-1,1.6-2.2,1.6
			c1.1,0.6,1.1,1.5,0.9,2.6c0.9-0.8,1.7-0.6,2.6,0C17.9,12.4,18.2,11.6,19.1,10.9z M13,20.5c-0.3,1.1-1,1.6-2.2,1.5
			c0.4,0.5,0.9,0.8,1,1.2c0.1,0.4-0.1,0.9-0.2,1.6c0.9-0.9,1.8-0.8,2.7-0.1c-0.5-1.1-0.1-1.9,0.8-2.6C14,22.2,13.3,21.7,13,20.5z
			 M24.4,9.3c-0.3,0.6-0.4,1.1-0.8,1.4c-0.3,0.3-0.9,0.1-1.4,0.4c0.9,1,0.9,1,0.8,2.7c0.9-1,1.7-0.8,2.7-0.1
			c-0.4-1.1-0.2-1.9,0.8-2.6C25.3,11,24.7,10.5,24.4,9.3z M9.6,32c-0.3,1.1-1,1.6-2.2,1.6c1.1,0.6,1.2,1.5,0.9,2.6
			c0.9-0.8,1.7-0.7,2.6,0c-0.4-1.1-0.1-1.9,0.8-2.6C10.5,33.6,9.9,33.1,9.6,32z M25.7,36.2c-0.1-0.6-0.3-1.1-0.2-1.5
			c0.1-0.4,0.6-0.7,1-1.1c-0.5-0.1-1.1-0.1-1.4-0.3c-0.3-0.3-0.5-0.8-0.8-1.4c-0.3,1.2-0.9,1.7-2.1,1.7c1.1,0.6,1.2,1.5,0.8,2.6
			C24,35.2,24.8,35.5,25.7,36.2z M15.1,14.7c-1.3,0.2-1.8-0.6-2.2-1.5c-0.3,1.1-1,1.6-2.1,1.5c0.9,1.2,0.9,1.2,0.8,2.7
			c0.9-0.8,1.7-0.8,2.7-0.1C13.9,16.2,14.1,15.4,15.1,14.7z M7.9,29.4C6.6,29.6,6.1,29,5.7,28c-0.3,1.2-1,1.6-2.1,1.6
			c1,0.7,1.2,1.5,0.8,2.6c0.9-0.8,1.8-0.7,2.6,0C6.9,30.7,6.9,30.7,7.9,29.4z M25.4,7.3c1.1,0.6,1.2,1.5,0.9,2.6
			C27.1,9,28,9.3,28.9,9.9c-0.5-1.1-0.1-1.9,0.8-2.6c-1.2,0.1-1.8-0.6-2.1-1.6C27.2,6.8,26.6,7.4,25.4,7.3z M28.9,32.1
			c-0.4-1.1-0.1-1.9,0.8-2.6c-1.2,0.1-1.8-0.5-2.1-1.6c-0.3,0.5-0.4,1-0.7,1.3c-0.3,0.3-0.9,0.1-1.4,0.4c0.3,0.4,0.8,0.7,0.9,1.1
			c0.1,0.4-0.1,0.9-0.1,1.6C27.1,31.4,27.9,31.3,28.9,32.1z M21.6,17.3c-0.4-1.1,0-1.9,0.8-2.6c-1.2,0.1-1.8-0.5-2.1-1.6
			c-0.3,1.1-1,1.6-2.2,1.5c0.4,0.5,0.9,0.8,1,1.2c0.1,0.4-0.1,0.9-0.2,1.6C19.8,16.6,20.7,16.5,21.6,17.3z M30.4,21.1
			c0.9-0.8,1.8-0.7,2.7,0c-0.4-1.1-0.1-1.9,0.8-2.6c-1.3,0.2-1.8-0.5-2.2-1.5c-0.3,1.2-1,1.6-2.1,1.6C30.6,19.2,30.8,20,30.4,21.1z
			 M17,24.4c-0.3,1.1-1,1.7-2.2,1.6c1,0.6,1.2,1.5,0.9,2.6c0.9-0.8,1.7-0.7,2.6,0.1c-0.1-0.6-0.2-1.1-0.1-1.6c0.1-0.5,0.7-0.6,1-1.2
			C17.9,26.1,17.3,25.5,17,24.4z"/>
		<path class="st2" d="M33.7,41.9c10.6,0,21.2,0,31.8,0c0.8,0,0.8,0,0.6,0.7c-0.4,1.5-0.9,3-1.5,4.4c-0.2,0.4-0.4,0.6-0.9,0.6
			c-16.5,0-33,0-49.6,0c-3.5,0-7,0-10.5,0c-0.5,0-0.7-0.2-0.8-0.6c-0.6-1.5-1.1-2.9-1.6-4.5C1,42,1.1,41.9,1.7,41.9
			C12.4,41.9,23,41.9,33.7,41.9z"/>
		<path class="st2" d="M5.7,52.4c18.6,0,37.2,0,55.8,0c0.1,0.2-0.1,0.3-0.2,0.5c-1.2,1.7-2.6,3.4-4.1,4.9C57,58,56.8,58,56.4,58
			c-15.1,0-30.3,0-45.4,0c-0.3,0-0.6,0-0.8-0.2c-1.6-1.6-3.1-3.3-4.3-5.2C5.8,52.6,5.8,52.5,5.7,52.4z"/>
		<path class="st2" d="M35.7,37.1c0-1.9,0-3.7,0-5.6c0.2,0,0.4,0,0.7,0c10,0,20.1,0,30.1,0c0.6,0,0.8,0.2,0.8,0.8
			c0,1.4,0,2.9-0.1,4.3c0,0.5-0.2,0.6-0.7,0.6c-5.9,0-11.9,0-17.8,0c-4.1,0-8.2,0-12.3,0C36.2,37.2,35.9,37.2,35.7,37.1z"/>
		<path class="st2" d="M35.7,26.7c0-1.9,0-3.8,0-5.6c0.4,0,0.7,0,1.1,0c9.1,0,18.3,0,27.4,0c0.5,0,0.8,0.1,0.9,0.6
			c0.5,1.5,1,3,1.4,4.5c0.1,0.3,0.2,0.6-0.4,0.6c-10.1,0-20.2,0-30.3,0C35.8,26.8,35.8,26.7,35.7,26.7z"/>
		<path class="st2" d="M35.7,16.3c0-1.9,0-3.8,0-5.6c0.2,0,0.4,0,0.6,0c7.1,0,14.2,0,21.3,0c0.4,0,0.7,0.1,1,0.5
			c1.4,1.6,2.7,3.3,3.8,5.1c-0.1,0.2-0.3,0.1-0.4,0.1c-8.6,0-17.2,0-25.9,0C36,16.3,35.9,16.3,35.7,16.3z"/>
		<path class="st2" d="M16.9,62.8c11.2,0,22.3,0,33.4,0c-1.1,1.2-7.1,3.4-10.9,4c-3.9,0.7-7.7,0.7-11.6,0
			C24.1,66.2,18.6,64.2,16.9,62.8z"/>
		<path class="st2" d="M35.7,5.9c0-1.9,0-4,0-5.8c1.7,0.1,2.7,0.3,4.1,0.5c4.5,0.8,8.7,2.6,12.5,5.1c0.1,0,0.1,0.1,0.3,0.2
			c-0.7,0-1.3,0-1.8,0c-4.9,0-9.8,0-14.7,0C36,5.9,35.8,5.9,35.7,5.9z"/>
		<path class="st0" d="M33.9,33.5c-1,0.7-1.3,1.5-0.8,2.6c-0.9-0.7-1.8-0.8-2.7,0c0.4-1.1,0.2-1.9-0.8-2.6c1.2,0.1,1.8-0.5,2.2-1.6
			C32.1,33.1,32.7,33.7,33.9,33.5z"/>
		<path class="st0" d="M27.5,13.1c0.3,1.1,1,1.6,2.2,1.6c-0.9,0.7-1.3,1.4-0.8,2.6c-0.9-0.7-1.8-0.7-2.7,0c0.3-1.1,0.2-1.9-0.9-2.5
			C26.5,14.7,27.3,14.4,27.5,13.1z"/>
		<path class="st0" d="M14.3,32.1c-0.9-0.7-1.8-0.7-2.7,0c0.4-1.1,0.2-1.9-0.9-2.6c0.6-0.1,1.2-0.1,1.5-0.3c0.3-0.2,0.5-0.8,0.8-1.3
			c0.3,1.2,0.9,1.7,2.1,1.7C14.2,30.2,13.8,31,14.3,32.1z"/>
		<path class="st0" d="M14.8,18.5c1.2,0.1,1.9-0.5,2.2-1.6c0.3,1.1,0.9,1.7,2.3,1.5c-0.5,0.5-0.9,0.8-1.1,1.2
			c-0.1,0.4,0.1,0.9,0.1,1.5c-0.9-0.7-1.7-0.8-2.6-0.1C15.9,20,15.9,19.1,14.8,18.5z"/>
		<path class="st0" d="M22.2,26c1.1,0,1.9-0.4,2.1-1.6c0.4,1.1,0.9,1.8,2.2,1.6c-0.9,0.7-1.3,1.5-0.8,2.6c-0.9-0.7-1.8-0.8-2.7,0
			C23.5,27.5,23.2,26.7,22.2,26z"/>
		<path class="st0" d="M20.2,5.7c0.4,1,0.9,1.7,2.2,1.5c-1,0.7-1.2,1.5-0.8,2.6c-1.4-0.6-1.4-0.6-2.8,0c0.4-1.1,0.3-1.9-0.8-2.6
			C19.3,7.4,20,6.9,20.2,5.7z"/>
		<path class="st0" d="M34,10.9c-1,1.2-1,1.2-0.9,2.8c-0.9-0.8-1.7-0.8-2.7,0c0.1-0.7,0.3-1.2,0.2-1.6c-0.1-0.4-0.6-0.7-1-1.2
			c1.2,0.1,1.9-0.4,2.2-1.5C32.1,10.4,32.7,11.1,34,10.9z"/>
		<path class="st0" d="M18.1,29.5c1.2,0.1,1.8-0.5,2.2-1.6c0.3,1.1,0.9,1.7,2.1,1.6c-0.9,0.7-1.3,1.5-0.8,2.6
			c-0.9-0.7-1.8-0.8-2.7,0C19.3,31,19.1,30.2,18.1,29.5z"/>
		<path class="st0" d="M25.8,6.1c-1.5-0.6-1.5-0.6-2.8-0.1c-0.1-0.5,0.3-1,0.1-1.4c-0.2-0.4-0.6-0.7-1-1.1c0.5-0.1,1.1-0.1,1.4-0.3
			c0.3-0.2,0.5-0.8,0.8-1.3c0.3,1.2,0.9,1.7,2.1,1.7C25.6,4.1,25.2,4.9,25.8,6.1z"/>
		<path class="st0" d="M22.1,18.5c1.5-0.3,1.5-0.3,2.3-1.6c0.3,1,0.9,1.7,2.1,1.6c-1,0.7-1.3,1.5-0.8,2.6c-0.9-0.7-1.8-0.8-2.7,0
			C23.4,20,23.2,19.2,22.1,18.5z"/>
		<path class="st0" d="M27.4,20.5c0.4,0.5,0.5,1,0.8,1.3c0.4,0.3,0.9,0.2,1.4,0.3c-0.2,0.5-0.8,0.7-0.9,1.1
			c-0.1,0.4,0.1,0.9,0.1,1.6c-0.9-0.7-1.7-0.9-2.6-0.1c0.3-1.1,0.2-2-0.9-2.6C26.5,22.1,27.3,21.7,27.4,20.5z"/>
		<path class="st0" d="M10.9,28.6c-1.3-0.5-1.3-0.5-2.8,0c0.5-1.1,0.2-1.9-0.8-2.5c1.5-0.4,1.5-0.4,2.2-1.7c0.3,1,0.9,1.7,2.1,1.6
			C10.9,26.7,10.3,27.4,10.9,28.6z"/>
		<path class="st0" d="M33.9,26c-1,0.7-1.2,1.5-0.8,2.6c-0.9-0.6-1.8-0.9-2.7,0c0.3-1.1,0.3-2-0.9-2.6c1.2,0,1.9-0.5,2.2-1.6
			C32.1,25.5,32.7,26.1,33.9,26z"/>
		<path class="st0" d="M5.7,20.5c0.3,1.1,0.9,1.7,2.1,1.6c-0.8,0.7-1.3,1.5-0.8,2.6c-0.9-0.7-1.8-0.8-2.7,0c0.4-1.1,0.2-1.9-0.8-2.6
			C4.7,22.2,5.4,21.6,5.7,20.5z"/>
		<path class="st0" d="M11.7,18.5c-0.8,0.7-1.3,1.4-0.8,2.6c-0.9-0.6-1.8-0.8-2.7,0.1c0.4-1.1,0.2-2-0.8-2.6c1.2,0,1.9-0.4,2.1-1.6
			C9.9,17.9,10.5,18.6,11.7,18.5z"/>
		<path class="st0" d="M31.8,1.9c0.3,1.1,1,1.6,2.2,1.6c-1,0.7-1.3,1.5-0.8,2.6c-0.9-0.7-1.8-0.8-2.7,0c0.3-1,0.3-2-0.9-2.6
			C30.8,3.4,31.5,3,31.8,1.9z"/>
		<path class="st0" d="M14.8,33.6C16,33.6,16.6,33,17,32c0.3,1.1,0.9,1.7,2.2,1.6c-0.9,0.7-1.3,1.5-0.8,2.6
			c-0.9-0.5-1.7-0.9-2.6,0.1C15.9,35.1,15.9,34.2,14.8,33.6z"/>
		<path class="st0" d="M20.3,20.6c0.3,1.1,0.9,1.6,2.1,1.5c-0.2,0.6-0.8,0.8-0.9,1.2c-0.1,0.4,0.1,0.9,0.2,1.6
			c-0.9-0.8-1.8-0.8-2.7-0.1c0.3-1.1,0.2-2-0.9-2.6C19.3,22.2,19.9,21.7,20.3,20.6z"/>
		<path class="st0" d="M19.1,10.9c-1,0.7-1.3,1.5-0.8,2.6c-0.9-0.6-1.7-0.8-2.6,0c0.3-1.1,0.2-2-0.9-2.6c1.2,0,1.9-0.4,2.2-1.6
			C17.3,10.4,17.9,11.1,19.1,10.9z"/>
		<path class="st0" d="M13,20.5c0.3,1.1,1,1.6,2.1,1.5c-0.8,0.7-1.3,1.4-0.8,2.6c-0.9-0.7-1.8-0.7-2.7,0.1c0.1-0.7,0.3-1.2,0.2-1.6
			c-0.1-0.4-0.6-0.7-1-1.2C12,22.1,12.7,21.7,13,20.5z"/>
		<path class="st0" d="M24.4,9.3c0.3,1.2,0.9,1.8,2.1,1.7c-1,0.7-1.3,1.5-0.8,2.6c-0.9-0.7-1.8-0.9-2.7,0.1c0.1-1.6,0.1-1.6-0.8-2.7
			c0.4-0.3,1,0,1.4-0.4C24,10.3,24.1,9.9,24.4,9.3z"/>
		<path class="st0" d="M9.6,32c0.3,1.1,1,1.6,2.1,1.6c-0.9,0.7-1.2,1.5-0.8,2.6c-0.9-0.7-1.8-0.8-2.6,0c0.3-1.1,0.2-2-0.9-2.6
			C8.6,33.6,9.2,33.1,9.6,32z"/>
		<path class="st0" d="M25.7,36.2c-0.9-0.7-1.8-1-2.7-0.1c0.3-1.1,0.2-2-0.8-2.6c1.2,0,1.9-0.5,2.1-1.7c0.3,0.6,0.4,1.1,0.8,1.4
			c0.3,0.3,0.9,0.2,1.4,0.3c-0.4,0.4-0.8,0.7-1,1.1C25.4,35.1,25.6,35.6,25.7,36.2z"/>
		<path class="st0" d="M15.1,14.7c-1,0.7-1.2,1.5-0.8,2.6c-0.9-0.8-1.8-0.8-2.7,0.1c0.1-1.5,0.1-1.5-0.8-2.7
			c1.1,0.1,1.9-0.4,2.1-1.5C13.4,14.1,13.8,14.9,15.1,14.7z"/>
		<path class="st0" d="M7.9,29.4c-1,1.2-1,1.2-0.9,2.7c-0.9-0.7-1.7-0.8-2.6,0c0.4-1.1,0.1-1.9-0.8-2.6c1.1,0,1.8-0.4,2.1-1.6
			C6.1,29,6.6,29.6,7.9,29.4z"/>
		<path class="st0" d="M25.4,7.3c1.2,0.1,1.8-0.5,2.2-1.6c0.4,1,0.9,1.7,2.1,1.6c-0.9,0.7-1.3,1.4-0.8,2.6C28,9.3,27.1,9,26.2,9.9
			C26.5,8.8,26.5,7.9,25.4,7.3z"/>
		<path class="st0" d="M28.9,32.1c-0.9-0.7-1.7-0.7-2.6,0.1c0.1-0.7,0.3-1.2,0.1-1.6c-0.1-0.4-0.6-0.7-0.9-1.1
			c0.5-0.3,1.1,0,1.4-0.4c0.3-0.3,0.5-0.8,0.7-1.3c0.3,1.1,0.9,1.8,2.1,1.6C28.8,30.2,28.4,31,28.9,32.1z"/>
		<path class="st0" d="M21.6,17.3c-0.9-0.7-1.7-0.7-2.7,0.1c0.1-0.7,0.3-1.2,0.2-1.6c-0.1-0.4-0.6-0.7-1-1.2
			c1.2,0.1,1.9-0.4,2.2-1.5c0.3,1.1,0.9,1.7,2.1,1.6C21.5,15.4,21.1,16.1,21.6,17.3z"/>
		<path class="st0" d="M30.4,21.1c0.4-1.1,0.2-1.9-0.8-2.6c1.1,0,1.9-0.4,2.1-1.6c0.4,1,0.9,1.7,2.2,1.5c-1,0.7-1.2,1.5-0.8,2.6
			C32.2,20.4,31.3,20.3,30.4,21.1z"/>
		<path class="st0" d="M17,24.4c0.3,1.1,0.9,1.7,2.1,1.5c-0.2,0.6-0.9,0.7-1,1.2c-0.1,0.4,0.1,0.9,0.1,1.6c-0.9-0.8-1.7-0.9-2.6-0.1
			c0.3-1.1,0.2-1.9-0.9-2.6C16,26.1,16.7,25.5,17,24.4z"/>
		<path class="st0" d="M1,28.5c-0.1,0-0.1,0-0.2,0c0-0.1,0-0.1,0-0.2C0.9,28.4,1,28.4,1,28.5z"/>
	</g>
</g>
</svg>
